<svg width="83" height="55" viewBox="0 0 83 55" fill="none" xmlns="http://www.w3.org/2000/svg">
<path d="M2.29607 17.0511L0.182617 16.2814L41.3173 0.734619L82.6497 15.7922L41.515 31.3379L4.65753 17.9116L4.77627 36.2941C5.12935 36.4799 5.44993 36.7436 5.72053 37.0707C6.26822 37.7359 6.61228 38.6545 6.61881 39.6651L6.65911 45.9044L0.661925 45.94L0.62163 39.7018C0.615102 38.6912 0.94727 37.7686 1.48632 37.0969C1.75175 36.7667 2.06983 36.4992 2.41956 36.3103L2.29607 17.0511Z" fill="#0C3BDE"/>
<path d="M40.1312 54.5103C51.4815 54.5103 60.6826 45.3091 60.6826 33.9589C60.6826 22.6086 51.4815 13.4075 40.1312 13.4075C28.781 13.4075 19.5798 22.6086 19.5798 33.9589C19.5798 45.3091 28.781 54.5103 40.1312 54.5103Z" fill="#0C3BDE"/>
<path d="M22.9833 20.4541C24.6047 20.4541 25.9192 19.1397 25.9192 17.5182C25.9192 15.8967 24.6047 14.5823 22.9833 14.5823C21.3618 14.5823 20.0474 15.8967 20.0474 17.5182C20.0474 19.1397 21.3618 20.4541 22.9833 20.4541Z" fill="white"/>
<path d="M53.9755 41.781C52.3056 43.7796 50.1609 45.3821 47.7139 46.4597C45.2667 47.5374 42.5853 48.0604 39.8847 47.9865C37.184 47.9127 34.5393 47.2443 32.1628 46.0348C29.7863 44.8252 27.7441 43.1083 26.2003 41.0218C24.6564 38.9355 23.6537 36.5375 23.2727 34.0203C22.8917 31.5033 23.143 28.9373 24.0065 26.5282C24.8699 24.119 26.3214 21.9339 28.2445 20.1481C30.1676 18.3623 32.5088 17.0255 35.0802 16.2451C31.7667 17.0114 28.7488 18.6387 26.3708 20.9413C23.9928 23.2439 22.3505 26.1291 21.6311 29.2677C20.9117 32.4064 21.1443 35.6721 22.3023 38.6923C23.4603 41.7126 25.497 44.3657 28.1803 46.3492C30.8635 48.3326 34.0851 49.5665 37.4776 49.9099C40.8701 50.2533 44.2969 49.6926 47.3671 48.2915C50.4372 46.8905 53.0271 44.7058 54.8413 41.9864C56.6553 39.267 57.6207 36.1226 57.6273 32.9118C57.3836 36.1461 56.1111 39.2365 53.9755 41.781Z" fill="white"/>
<path d="M32.3347 15.6348C34.6323 14.6585 37.1452 14.2105 39.6713 14.3266C42.1977 14.4428 44.6672 15.1198 46.8816 16.3034C49.0962 17.4871 50.9941 19.1443 52.4231 21.1421C53.852 23.1401 54.7723 25.4231 55.11 27.8079C55.4478 30.1926 55.1935 32.6128 54.3677 34.8743C53.542 37.1357 52.1676 39.1754 50.355 40.8297C48.5424 42.484 46.342 43.7068 43.9303 44.4C41.5186 45.0933 38.9629 45.2376 36.4681 44.8215C39.5742 45.5577 42.8251 45.4517 45.8501 44.5157C48.8751 43.5796 51.5522 41.8511 53.5762 39.5274C55.6002 37.2037 56.8895 34.3784 57.2969 31.3737C57.7045 28.369 57.2137 25.306 55.8809 22.534C54.548 19.7619 52.4266 17.3926 49.7586 15.6963C47.0906 14 43.9836 13.0449 40.7918 12.9401C37.6 12.8353 34.4522 13.5849 31.7073 15.1034C28.9625 16.622 26.7311 18.8484 25.2678 21.5285C26.9392 18.9272 29.4017 16.8736 32.3347 15.6348Z" fill="white"/>
<path d="M31.2174 31.901L29.567 33.5315C29.2479 33.8468 29.2558 34.3503 29.5848 34.6562C29.7461 34.8061 29.9544 34.8806 30.1626 34.8806C30.3792 34.8806 30.5957 34.7998 30.7584 34.6391L32.4088 33.0086C32.728 32.6933 32.72 32.1898 32.391 31.884C32.062 31.5781 31.5366 31.5857 31.2174 31.901Z" fill="white" stroke="white" stroke-width="0.35231"/>
<path d="M36.9933 32.4165C36.5349 32.4165 36.1633 32.7726 36.1633 33.2118V40.2109C36.1633 40.6501 36.5349 41.0063 36.9933 41.0063C37.4516 41.0063 37.8232 40.6502 37.8232 40.2109L37.8231 33.2118C37.8231 32.7726 37.4516 32.4165 36.9933 32.4165Z" fill="white" stroke="white" stroke-width="0.35231"/>
<path d="M48.1293 20.6445H45.6395C45.1811 20.6445 44.8096 21.0006 44.8096 21.4399C44.8096 21.8791 45.1811 22.2352 45.6395 22.2352H47.8269L41.7329 28.0741C41.5694 28.2308 41.3554 28.3199 41.1438 28.3199C41.1394 28.3199 41.1349 28.3199 41.1304 28.3198C40.9266 28.3161 40.7184 28.2266 40.5592 28.074L39.5835 27.139C39.1058 26.6812 38.4717 26.4158 37.8435 26.4109C37.8374 26.4108 37.8314 26.4108 37.8253 26.4108C37.1752 26.4108 36.526 26.6832 36.0408 27.1599L34.2623 28.872C33.9389 29.1833 33.9401 29.6869 34.2649 29.9968C34.4268 30.1512 34.6386 30.2285 34.8504 30.2285C35.0634 30.2285 35.2764 30.1503 35.4386 29.9942L37.2203 28.279C37.2228 28.2767 37.2252 28.2744 37.2276 28.272C37.4009 28.101 37.6267 27.9995 37.8299 28.0015C38.0233 28.003 38.2401 28.101 38.4099 28.2637L39.3856 29.1988C39.8524 29.6461 40.4611 29.8988 41.0996 29.9102C41.7635 29.9221 42.4226 29.6628 42.9066 29.1989L48.9592 23.3997V25.3769C48.9592 25.8161 49.3308 26.1722 49.7891 26.1722C50.2475 26.1722 50.619 25.8161 50.619 25.3769V23.0306C50.619 21.7149 49.5022 20.6445 48.1293 20.6445Z" fill="white" stroke="white" stroke-width="0.35231"/>
<path d="M31.7854 35.9939C31.3259 35.9924 30.9526 36.3489 30.9526 36.7892V40.2092C30.9526 40.6484 31.3242 41.0046 31.7825 41.0046C32.2408 41.0046 32.6125 40.6485 32.6125 40.2092V36.7892C32.6125 36.351 32.2427 35.9954 31.7854 35.9939Z" fill="white" stroke="white" stroke-width="0.35231"/>
<path d="M48.0902 27.446C47.6319 27.446 47.2603 27.8021 47.2603 28.2414V40.2114C47.2603 40.6506 47.6319 41.0068 48.0902 41.0068C48.5485 41.0068 48.9202 40.6507 48.9202 40.2114V28.2414C48.9202 27.8021 48.5486 27.446 48.0902 27.446Z" fill="white" stroke="white" stroke-width="0.35231"/>
<path d="M42.5023 31.6597C42.0439 31.6597 41.6724 32.0158 41.6724 32.4551V40.2097C41.6724 40.6489 42.0439 41.005 42.5023 41.005C42.9606 41.005 43.3323 40.649 43.3323 40.2097V32.4551C43.3322 32.0158 42.9607 31.6597 42.5023 31.6597Z" fill="white" stroke="white" stroke-width="0.35231"/>
</svg>
